<svg width="40" height="41" viewBox="0 0 40 41" fill="none" xmlns="http://www.w3.org/2000/svg">
<path d="M28.8285 0.949219H10.7C4.79993 0.949219 0 5.74915 0 11.6492V29.778C0 35.6778 4.79993 40.4777 10.7 40.4777H28.8288C34.7286 40.4777 39.5285 35.6778 39.5285 29.778V11.6492C39.5285 5.74915 34.7286 0.949219 28.8285 0.949219V0.949219ZM37.2112 29.778C37.2112 34.4 33.4508 38.1604 28.8285 38.1604H10.7C6.07772 38.1604 2.31733 34.4 2.31733 29.778V11.6492C2.31733 7.02693 6.07772 3.26655 10.7 3.26655H28.8288C33.4508 3.26655 37.2112 7.02693 37.2112 11.6492V29.778Z" fill="#C4C4C4"/>
<path d="M19.7623 9.90527C13.8025 9.90527 8.95404 14.7538 8.95404 20.7136C8.95404 26.6734 13.8025 31.5218 19.7623 31.5218C25.7221 31.5218 30.5706 26.6734 30.5706 20.7136C30.5706 14.7538 25.7221 9.90527 19.7623 9.90527ZM19.7623 29.2045C15.0806 29.2045 11.2714 25.3956 11.2714 20.7136C11.2714 16.0318 15.0806 12.2226 19.7623 12.2226C24.4443 12.2226 28.2533 16.0318 28.2533 20.7136C28.2533 25.3956 24.4443 29.2045 19.7623 29.2045Z" fill="#C4C4C4"/>
<path d="M30.8304 6.06665C29.0692 6.06665 27.6367 7.49945 27.6367 9.26037C27.6367 11.0216 29.0692 12.4544 30.8304 12.4544C32.5917 12.4544 34.0245 11.0216 34.0245 9.26037C34.0245 7.49915 32.5917 6.06665 30.8304 6.06665ZM30.8304 10.1368C30.3473 10.1368 29.954 9.7435 29.954 9.26037C29.954 8.77694 30.3473 8.38398 30.8304 8.38398C31.3139 8.38398 31.7071 8.77694 31.7071 9.26037C31.7071 9.7435 31.3139 10.1368 30.8304 10.1368Z" fill="#C4C4C4"/>
</svg>
