<svg width="30" height="30" viewBox="0 0 30 30" fill="currentColor" xmlns="http://www.w3.org/2000/svg">
<path d="M28.9102 1.44201L22.8165 0.0357891C22.1545 -0.116551 21.4748 0.229145 21.2053 0.850226L18.3928 7.41259C18.1467 7.9868 18.3108 8.66061 18.7971 9.05318L22.3478 11.9594C20.2385 16.4534 16.553 20.1916 11.9652 22.342L9.05902 18.7913C8.66059 18.3049 7.99263 18.1409 7.41843 18.387L0.856062 21.1994C0.229121 21.4748 -0.116575 22.1545 0.0357658 22.8166L1.44199 28.9102C1.58847 29.543 2.15096 30 2.81305 30C17.8186 30 30 17.8421 30 2.81308C30 2.15684 29.5488 1.58849 28.9102 1.44201Z" />
</svg>
