<svg width="41" height="32" viewBox="0 0 41 32" fill="none" xmlns="http://www.w3.org/2000/svg">
<path d="M40.1983 0.801981C39.8065 0.317828 39.1568 0.138283 38.5791 0.353737L1.88723 13.8038C1.1542 14.0741 0.639673 14.7294 0.544153 15.5142C0.449549 16.2952 0.788904 17.053 1.4255 17.4892L6.67024 21.1209C7.17836 21.4729 7.83174 21.5107 8.37586 21.2194L19.7528 15.1337L10.8859 21.8496C10.4697 22.1651 10.221 22.6681 10.221 23.195V29.4159C10.221 30.0576 10.5679 30.6455 11.1264 30.9507C11.6858 31.2559 12.3615 31.2256 12.8928 30.8702L16.8774 28.1891L20.7959 30.8993C21.1392 31.138 21.5481 31.2637 21.9607 31.2637C22.1002 31.2637 22.2403 31.2491 22.3782 31.22C22.9285 31.1036 23.4152 30.7588 23.714 30.274L40.3146 2.50704C40.6378 1.97243 40.5914 1.2883 40.1983 0.801981ZM21.8732 28.7655L17.8152 25.9587C17.533 25.7631 17.2076 25.6653 16.8826 25.6653C16.5646 25.6653 16.2463 25.7591 15.9677 25.9467L12.5659 28.2355V23.546L28.2229 11.6871C28.9221 11.1574 29.0982 10.1934 28.6322 9.44491C28.1659 8.6964 27.2323 8.44348 26.4605 8.85644L7.64955 18.9187L3.21352 15.8469L37.0016 3.46142L21.8732 28.7655Z" fill="#C4C4C4"/>
</svg>
