<svg width="41" height="40" viewBox="0 0 41 40" fill="none" xmlns="http://www.w3.org/2000/svg">
<path d="M34.4426 5.95532C30.8218 2.33456 26.0089 0.34082 20.8881 0.34082C20.8878 0.34082 20.8866 0.34082 20.8863 0.34082C18.3537 0.341122 15.8855 0.83149 13.551 1.79865C11.2162 2.76582 9.12442 4.16424 7.33334 5.95532C3.71288 9.57578 1.71914 14.3896 1.71914 19.5098C1.71914 22.5633 2.4559 25.5978 3.85191 28.3014L0.629839 37.5062C0.402749 38.1555 0.563491 38.8612 1.05024 39.3477C1.39072 39.6885 1.83887 39.8694 2.29968 39.8694C2.49722 39.8694 2.69686 39.8362 2.89168 39.7681L12.0965 36.5463C14.8001 37.9423 17.8346 38.6791 20.8881 38.6791C26.0083 38.6791 30.8218 36.685 34.4426 33.0646C38.0631 29.4441 40.0571 24.6303 40.0571 19.5101C40.0571 14.3896 38.0634 9.57578 34.4426 5.95532ZM32.8032 31.4252C29.6207 34.6081 25.3889 36.3605 20.8881 36.3605C18.1347 36.3605 15.3994 35.6796 12.9777 34.3906C12.5386 34.1572 12.0196 34.1171 11.5536 34.2803L3.19085 37.2071L6.11798 28.8443C6.28113 28.3777 6.24072 27.8587 6.0073 27.4199C4.71865 24.9988 4.03738 22.2635 4.03738 19.5098C4.03738 15.009 5.79016 10.7773 8.97273 7.59471C12.155 4.41244 16.3861 2.65966 20.8866 2.65906H20.8881C25.3892 2.65906 29.6207 4.41184 32.8032 7.59471C35.9861 10.7773 37.7389 15.0087 37.7389 19.5098C37.7389 24.0109 35.9861 28.2426 32.8032 31.4252Z" fill="#C4C4C4"/>
<path d="M28.0123 21.2221C27.1305 20.3403 25.6956 20.3403 24.8137 21.2221L23.8493 22.1866C21.4544 20.8817 19.5165 18.9437 18.2113 16.5489L19.1757 15.5844C20.0578 14.7026 20.0578 13.2677 19.1757 12.3859L16.5767 9.78685C15.6949 8.90503 14.26 8.90503 13.3781 9.78685L11.2991 11.8659C10.1081 13.0569 10.0487 15.1043 11.1317 17.6312C12.072 19.8252 13.7928 22.2366 15.9772 24.421C18.1615 26.6053 20.5729 28.3261 22.7669 29.2665C23.9675 29.781 25.0595 30.0376 26.0032 30.0376C27.0457 30.0376 27.907 29.7243 28.5322 29.0991L30.6113 27.0197V27.02C31.0386 26.5927 31.2739 26.0248 31.2739 25.4207C31.2739 24.8164 31.0386 24.2485 30.6113 23.8214L28.0123 21.2221ZM26.8928 27.4597C26.5529 27.7996 25.5077 27.9187 23.6804 27.1358C21.7509 26.3089 19.5973 24.7624 17.6165 22.7816C15.6358 20.8008 14.0896 18.6476 13.2626 16.718C12.4794 14.8908 12.5986 13.8452 12.9384 13.5053L14.9777 11.466L17.4965 13.9851L16.2893 15.1927C15.7434 15.7385 15.6116 16.5664 15.9618 17.2527C17.549 20.365 20.0331 22.8492 23.1454 24.4364C23.8321 24.7865 24.6599 24.655 25.2058 24.1089L26.413 22.9016L28.9321 25.4207L26.8928 27.4597Z" fill="#C4C4C4"/>
</svg>
